<svg width="24" height="24" viewBox="0 0 24 24" fill="none" xmlns="http://www.w3.org/2000/svg">
<path fill-rule="evenodd" clip-rule="evenodd" d="M0 3V21H24V3H0Z" fill="#F7FCFF"/>
<mask id="mask0_63_1039" style="mask-type:luminance" maskUnits="userSpaceOnUse" x="0" y="3" width="24" height="18">
<path fill-rule="evenodd" clip-rule="evenodd" d="M0 3V21H24V3H0Z" fill="white"/>
</mask>
<g mask="url(#mask0_63_1039)">
<path fill-rule="evenodd" clip-rule="evenodd" d="M0 3V9H24V3H0Z" fill="#FF8C1A"/>
<path fill-rule="evenodd" clip-rule="evenodd" d="M0 15V21H24V15H0Z" fill="#5EAA22"/>
<path fill-rule="evenodd" clip-rule="evenodd" d="M9 12C9 12.7956 9.31607 13.5587 9.87868 14.1213C10.4413 14.6839 11.2044 15 12 15C12.7956 15 13.5587 14.6839 14.1213 14.1213C14.6839 13.5587 15 12.7956 15 12C15 11.2044 14.6839 10.4413 14.1213 9.87868C13.5587 9.31607 12.7956 9 12 9C11.2044 9 10.4413 9.31607 9.87868 9.87868C9.31607 10.4413 9 11.2044 9 12ZM14.25 12C14.25 12.5967 14.0129 13.169 13.591 13.591C13.169 14.0129 12.5967 14.25 12 14.25C11.4033 14.25 10.831 14.0129 10.409 13.591C9.98705 13.169 9.75 12.5967 9.75 12C9.75 11.4033 9.98705 10.831 10.409 10.409C10.831 9.98705 11.4033 9.75 12 9.75C12.5967 9.75 13.169 9.98705 13.591 10.409C14.0129 10.831 14.25 11.4033 14.25 12Z" fill="#3D58DB"/>
<path fill-rule="evenodd" clip-rule="evenodd" d="M11.9956 12.645L11.5681 14.9858L11.8163 12.6195L10.7461 14.745L11.6513 12.5445L10.0261 14.2815L11.5141 12.4253L9.46505 13.635L11.4166 12.273L9.10955 12.8558L11.3648 12.099L8.9873 12.0083L11.3648 11.9183L9.10955 11.1608L11.4166 11.7435L9.46505 10.3815L11.5141 11.5913L10.0261 9.73501L11.6513 11.472L10.7461 9.27226L11.8163 11.397L11.5681 9.03076L11.9956 11.3708L12.4238 9.03076L12.1756 11.397L13.2458 9.27226L12.3406 11.472L13.9658 9.73501L12.4778 11.5913L14.5268 10.3815L12.5753 11.7435L14.8823 11.1608L12.6263 11.9183L15.0038 12.0083L12.6263 12.099L14.8823 12.8565L12.5753 12.273L14.5268 13.635L12.4778 12.4253L13.9658 14.2815L12.3406 12.5445L13.2458 14.745L12.1756 12.6195L12.4238 14.9858L11.9963 12.6458L11.9956 12.645Z" fill="#3D58DB"/>
</g>
</svg>
