<svg width="19" height="15" viewBox="0 0 19 15" fill="none" xmlns="http://www.w3.org/2000/svg">
<path fill-rule="evenodd" clip-rule="evenodd" d="M7.53825 9.98185L7.53765 4.60557L12.6712 7.30298L7.53825 9.98185ZM18.81 3.67394C18.81 3.67394 18.6242 2.35544 18.0548 1.77482C17.3322 1.01241 16.5223 1.00882 16.1512 0.964571C13.4924 0.770831 9.50416 0.770834 9.50416 0.770834H9.49584C9.49584 0.770834 5.50763 0.770831 2.84881 0.964571C2.47713 1.00882 1.66785 1.01241 0.944658 1.77482C0.375252 2.35544 0.189998 3.67394 0.189998 3.67394C0.189998 3.67394 0 5.22266 0 6.77079V8.22264C0 9.77136 0.189998 11.3195 0.189998 11.3195C0.189998 11.3195 0.375252 12.638 0.944658 13.2186C1.66785 13.981 2.61725 13.9571 3.04 14.0366C4.56 14.1837 9.5 14.2292 9.5 14.2292C9.5 14.2292 13.4924 14.2232 16.1512 14.0294C16.5223 13.9846 17.3322 13.981 18.0548 13.2186C18.6242 12.638 18.81 11.3195 18.81 11.3195C18.81 11.3195 19 9.77136 19 8.22264V6.77079C19 5.22266 18.81 3.67394 18.81 3.67394Z" fill="#CE1312"/>
</svg>
