<svg width="61" height="61" viewBox="0 0 61 61" fill="none" xmlns="http://www.w3.org/2000/svg">
<path d="M12.749 10.6636H47.8964C49.0878 10.6636 50.1611 11.7368 50.1611 12.9282V48.0756C50.1611 49.267 49.0878 50.3403 47.8964 50.3403H12.749C11.5576 50.3403 10.4844 49.267 10.4844 48.0756V12.9282C10.4844 11.7368 11.5576 10.6636 12.749 10.6636ZM38.6607 32.9419H44.1411L44.3794 27.6997H38.6607V23.8281C38.6607 22.3394 38.958 21.5044 40.8643 21.5044H44.2002L44.3203 16.6187C44.3203 16.6187 42.8315 16.3804 40.687 16.3804C35.4448 16.3804 33.1211 19.6573 33.1211 23.1724V27.6997H29.2495V32.9419H33.1211V47.4771H38.6607V32.9419Z" fill="white"/>
</svg>
